<?xml version="1.0" encoding="UTF-8"?>
<!DOCTYPE svg PUBLIC "-//W3C//DTD SVG 1.1//EN" "http://www.w3.org/Graphics/SVG/1.1/DTD/svg11.dtd">
<!-- Creator: CorelDRAW 2019 (64-Bit) -->
<svg xmlns="http://www.w3.org/2000/svg" xml:space="preserve" width="8.61699in" height="7.3958in" version="1.1" style="shape-rendering:geometricPrecision; text-rendering:geometricPrecision; image-rendering:optimizeQuality; fill-rule:evenodd; clip-rule:evenodd"
viewBox="0 0 531.062 455.801"
 xmlns:xlink="http://www.w3.org/1999/xlink">
 <defs>
  <style type="text/css">
   <![CDATA[
    .fil0 {fill:#201E1E}
    .fil2 {fill:black}
    .fil4 {fill:#52CBF5}
    .fil5 {fill:#EA2D08}
    .fil1 {fill:#F9F9F8}
    .fil3 {fill:#FBA39F}
   ]]>
  </style>
 </defs>
 <g id="Capa_x0020_1">
  <metadata id="CorelCorpID_0Corel-Layer"/>
  <path class="fil0" d="M25.704 153.681c1.695,15.098 6.664,29.433 14.097,41.789l0.126 0.209 0.218 0.112c0.103,0.052 0.2,0.101 0.293,0.147 -3.377,0.707 -6.579,1.712 -9.525,2.983 -9.135,3.152 -16.966,9.388 -22.327,16.967 -8.292,11.723 -11.969,29.854 -4.667,40.935 1.304,-1.558 0.624,-2.223 0.296,-4.591 -1.573,-11.333 1.658,-22.82 8.841,-31.259 6.694,-7.865 17.156,-15.02 28.707,-16.874 14.272,-2.29 28.919,0.692 38.137,6.848 13.694,9.146 13.741,18.602 14.392,31.706l2.135 0.583 0.026 -0.226 0.116 0.023c1.739,0.348 3.133,0.869 4.593,1.413 1.163,0.434 2.367,0.883 3.828,1.286 16.699,4.599 33.337,6.12 49.468,4.329 15.704,-1.743 30.929,-6.625 45.263,-14.857 2.152,-1.236 4.247,-2.476 6.346,-3.839 2.121,-1.377 4.256,-2.884 6.473,-4.643 1.089,-0.864 2.546,-2.127 4.062,-3.443 2.474,-2.146 5.116,-4.437 6.491,-5.3 0.792,1.636 1.626,3.699 2.52,5.91 2.358,5.834 5.128,12.686 8.939,16.167l1.877 1.714 -0.463 -2.5c-0.361,-1.953 -1.588,-4.919 -2.707,-7.622 -0.591,-1.428 -1.151,-2.783 -1.524,-3.845 -3.324,-9.461 -3.909,-18.277 -2.03,-25.683 1.174,-4.626 3.314,-8.702 6.351,-12.037 3.039,-3.338 6.98,-5.941 11.756,-7.619 7.875,-2.767 18.021,-3.03 30.144,0.048l0.524 0.137c7.932,2.147 12.934,6.626 15.379,12.786 2.477,6.239 2.373,14.234 0.067,23.317 -0.09,0.355 -0.186,0.721 -0.287,1.093 -4.128,15.252 -12.593,27.171 -17.199,33.657 -1.665,2.344 -2.842,4.001 -3.197,4.961l-0.73 1.971 1.9 -0.904c4.023,-1.915 8.335,-6.085 12.279,-10.942 5.143,-6.334 9.692,-13.866 12.139,-19.036 0.273,-0.577 0.48,-1.06 0.665,-1.491 0.379,-0.885 0.657,-1.533 1.24,-2.302 1.122,0.631 2.474,1.685 3.679,2.624 0.601,0.469 1.17,0.912 1.609,1.23 15.698,11.381 34.607,18.056 54.088,20.218 20.19,2.241 41.003,-0.364 59.495,-7.596l0.989 -0.38c0.964,-0.368 1.683,-0.643 2.84,-1.195l0.843 -0.441c0.579,-0.305 1.167,-0.612 1.674,-0.893 0,0.006 0.001,0.012 0.001,0.018 0.485,0.14 1.505,-0.414 1.816,-0.285 0.219,-10.925 0.017,-15.461 5.153,-22.586 3.996,-5.544 8.278,-8.762 16.036,-11.593 7.046,-2.571 15.44,-4.162 22.958,-4.447 39.307,-1.495 61.036,30.712 50.552,54.281 -2.617,5.884 -7.94,11.302 -12.496,14.426 1.518,0.196 4.166,-1.345 6.439,-2.567 1.715,-0.922 3.858,-2.782 5.421,-4.188 16.715,-15.037 8.217,-39.805 -5.64,-53.103 -2.906,-2.789 -7.121,-6.115 -11.163,-8.13 -5.783,-2.883 -7.51,-3.748 -13.727,-5.614 -4.402,-1.409 -9.441,-2.354 -14.778,-2.741l0.151 -0.327c0.69,-1.499 1.209,-2.602 1.713,-3.674 2.135,-4.541 3.987,-8.481 6.033,-14.361 5.558,-15.974 6.439,-33.822 3.308,-50.813 -3.173,-17.216 -10.468,-33.565 -21.191,-46.205 -11.387,-13.423 -19.179,-18.853 -23.943,-22.173 -1.628,-1.135 -2.893,-2.016 -3.787,-2.86 0.881,-2.337 4.427,-7.846 7.978,-13.364 3.921,-6.092 7.849,-12.194 8.395,-14.447l0.143 -0.591 -0.514 -0.329c-1.633,-1.043 -3.759,-2.318 -5.74,-3.28 -1.516,-0.736 -2.971,-1.3 -4.108,-1.465l-0.555 -0.08 -16.602 27.169c-1.912,-0.211 -4.395,-1.405 -6.713,-2.519 -1.332,-0.64 -2.613,-1.256 -3.724,-1.664 -13.268,-4.863 -18.192,-5.401 -25.044,-6.149 -3.126,-0.341 -6.659,-0.728 -11.566,-1.593l0.212 -33.838 -12.539 0.177 -0.014 0.827c-0.022,1.256 -0.007,3.575 0.012,6.428 0.06,9.189 0.156,23.99 -0.765,26.218 -0.64,0.557 -4.665,0.864 -7.453,1.077 -1.038,0.079 -1.916,0.146 -2.461,0.223 -5.699,1.136 -14.969,2.817 -20.255,4.491 -0.959,0.316 -2.089,0.765 -3.237,1.221 -1.599,0.635 -3.235,1.286 -4.588,1.623 -1.073,-1.205 -3.675,-5.188 -6.578,-9.844 -4.534,-7.274 -9.738,-16.117 -11.095,-18.746l-0.3 -0.582 -0.636 0.137c-1.835,0.395 -3.802,1.143 -5.556,2.045 -1.821,0.936 -3.43,2.05 -4.446,3.118l-0.338 0.356 0.134 0.467c0.758,2.636 5.006,9.225 9.097,15.57 3.434,5.327 6.756,10.479 7.688,12.739l-13.923 9.161c-4.346,3.372 -8.507,6.977 -12.419,10.835 -3.918,3.864 -7.589,7.98 -10.948,12.37 -1.82,2.378 -3.401,4.719 -4.863,7.073 -1.471,2.373 -2.808,4.732 -4.137,7.147 -4.566,8.291 -8.032,18.311 -10.034,28.697 -1.96,10.164 -2.52,20.688 -1.34,30.294 0.358,2.916 1.119,6.304 1.857,9.591 0.721,3.211 1.421,6.326 1.686,8.768l-12.331 0.361 3.611 -19.469c0.339,-2.326 0.485,-7.057 0.43,-11.687 -0.052,-4.371 -0.284,-8.666 -0.701,-10.786l-0.495 -2.525c-2.491,-12.741 -4.107,-21.004 -10.6,-32.939 -4.147,-7.622 -9.082,-14.843 -14.712,-21.347 -5.393,-6.231 -11.424,-11.805 -18.008,-16.447l-13.583 -9.111c0.842,-2.324 4.045,-7.285 6.303,-10.784 0.744,-1.152 1.384,-2.143 1.86,-2.927 0.467,-0.769 1.199,-1.911 2.01,-3.176 2.478,-3.867 5.715,-8.92 6.418,-11.413l0.177 -0.626 -0.561 -0.337c-0.535,-0.321 -1.229,-0.762 -1.951,-1.221 -2.214,-1.407 -4.713,-2.996 -6.916,-3.687l-0.406 -0.127 -0.35 0.254c-2.242,1.632 -7.114,9.935 -11.508,17.422 -2.828,4.82 -5.455,9.296 -6.966,11.313 -1.025,-0.233 -3.138,-0.914 -5.662,-1.727 -4.014,-1.293 -9.047,-2.915 -12.701,-3.671 -7.527,-1.557 -12.356,-2.001 -15.454,-2.285 -4.524,-0.415 -4.74,-0.435 -4.798,-3.96 -0.094,-5.741 -0.134,-11.481 -0.174,-17.22 -0.028,-4.041 -0.056,-8.082 -0.103,-12.108l-0.007 -0.615 -0.578 -0.191c-1.364,-0.451 -3.328,-0.66 -5.344,-0.681 -2.22,-0.022 -4.528,0.185 -6.165,0.549l-0.667 0.148 -0.1 33.314c-1.905,0.49 -6.258,0.927 -9.56,1.259 -1.327,0.133 -2.487,0.25 -3.293,0.352 -11.769,1.487 -19.42,4.738 -25.758,7.432 -2.794,1.188 -5.33,2.265 -7.829,3.02 -1.257,-1.746 -5.533,-8.459 -9.432,-14.788 -3.395,-5.511 -6.485,-10.703 -7.013,-12.019l-0.279 -0.695 -0.725 0.186c-2.567,0.661 -4.772,1.914 -6.937,3.145 -0.912,0.519 -1.818,1.033 -2.774,1.51l-0.605 0.302 0.154 0.658c0.6,2.567 4.805,9.088 8.873,15.398 3.347,5.19 6.6,10.236 7.56,12.583 -1.162,0.969 -2.639,1.979 -4.115,2.988 -1.041,0.711 -2.083,1.423 -3.069,2.162 -3.923,2.939 -7.332,5.742 -10.535,8.779 -3.209,3.042 -6.217,6.321 -9.33,10.207 -3.625,4.524 -7.135,9.54 -10.308,15.131 -3.171,5.589 -6.006,11.757 -8.281,18.587 -4.83,14.5 -6.117,29.324 -4.529,43.473zm475.927 71.371c-2.69,4.351 6.004,5.366 7.852,3.139 3.603,-4.34 -5.944,-6.226 -7.852,-3.139zm-9.686 7.321c3.961,-4.522 -6.69,-7.326 -9.16,-3.172 -2.537,4.268 5.748,7.066 9.16,3.172zm-20.747 -19.901c1.064,1.685 0.78,2.565 3.937,2.73 2.781,0.145 3.422,-0.592 4.579,-2.088 0.953,-3.268 -6.686,-5.923 -8.515,-0.642zm-419.264 24.395c-2.703,-2.972 -5.416,-3.464 -9.201,0 -0.81,6.916 8.411,5.888 9.201,0zm-0.671 -23.91c0.173,4.821 6.994,7.801 7.332,-0.001 -2.648,-1.461 -4.569,-1.49 -7.332,0.001zm-24.604 15.8c3.477,-8.629 -14.015,-1.813 -5.386,1.192 2.674,0.931 4.284,0.216 5.386,-1.192zm171.656 82.071c-17.245,-2.499 -34.189,-5.991 -47.278,-10.248 -18.364,-5.973 -32.792,-11.107 -46.586,-17.361 -13.785,-6.251 -26.95,-13.626 -42.797,-24.088l-0.003 0c-0.386,-0.255 -0.676,-0.437 -0.95,-0.609 -1.109,-0.697 -1.957,-1.229 -2.493,-2.202 2.499,-2.355 4.212,-3.018 5.484,-3.509 1.43,-0.552 2.397,-0.927 3.263,-2.674l0.61 -1.232 -1.376 0.001c-0.597,0 -1.175,0.015 -1.733,0.043 -6.561,0.33 -12.283,2.505 -16.373,6.315 -4.111,3.829 -6.562,9.288 -6.555,16.162 0,0.494 0.013,0.981 0.037,1.461l0.07 1.386 1.204 -0.684c1.695,-0.962 2.544,-2.628 3.397,-4.302 0.687,-1.349 1.377,-2.703 2.508,-3.487 0.764,2.629 1.348,4.998 1.93,7.361 0.849,3.445 1.697,6.882 3.067,11.035 3.303,10.303 6.443,19.462 9.971,28.463 3.53,9.006 7.458,17.879 12.34,27.613 3.615,7.208 8.993,16.183 14.775,24.741 5.47,8.097 11.323,15.851 16.41,21.415 2.074,2.268 4.159,4.479 6.197,6.606 2.059,2.149 4.102,4.245 6.041,6.232 16.642,17.053 40.757,33.699 69.525,44.459 23.982,8.97 51.2,13.853 80.021,11.477 31.229,-2.574 58.051,-10.719 81.156,-22.345 23.099,-11.624 42.475,-26.726 58.821,-43.223 6.636,-6.697 12.527,-13.69 17.978,-21.019 5.437,-7.313 10.441,-14.97 15.312,-23.009l0.013 -0.02c5.719,-10.01 10.198,-19.249 14.029,-28.73 3.832,-9.485 7.013,-19.198 10.134,-30.16l7.377 -35.99c1.856,0.777 3.771,2.246 5.491,3.567 1.305,1.002 2.505,1.923 3.573,2.463l1.452 0.735 -0.222 -1.612c-0.251,-1.825 -0.921,-3.593 -1.919,-5.248 -2.137,-3.542 -5.801,-6.598 -10.088,-8.601 -4.278,-2 -9.193,-2.96 -13.844,-2.32 -2.475,0.34 -4.875,1.13 -7.066,2.452l-1.568 0.946 1.732 0.595c1.767,0.607 3.782,0.866 5.795,1.124 1.71,0.219 3.42,0.438 4.919,0.879 -0.803,1.006 -2.604,2.64 -4.775,4.462 -5.065,4.252 -12.018,9.333 -13.529,10.37 -11.936,8.192 -24.831,15.892 -38.288,22.571 -12.396,6.152 -25.269,11.44 -38.311,15.45 -9.729,2.992 -16.884,5.054 -24.244,6.812 -7.356,1.756 -14.967,3.22 -25.614,5.016 -10.738,1.811 -21.168,3.024 -31.896,3.776 -10.755,0.755 -21.791,1.049 -33.718,1.023 -14.969,-0.032 -34.36,-1.581 -53.405,-4.341z"/>
  <g id="_1943109666320">
   <path class="fil1" d="M277.644 324.442c-0.265,3.863 3.276,41.198 4.25,43.631 4.78,0.492 53.415,-4.402 61.062,-5.351 0.416,-6.784 -1.101,-16.913 -1.716,-23.705 -0.554,-6.114 -1.178,-16.92 -2.458,-22.908l-28.985 5.05c-10.788,1.654 -21.664,1.614 -32.153,3.284zm56.816 -229.693c24.161,-4.244 53.359,13.32 57.372,41.842 4.184,29.743 -19.581,50.596 -44.068,54.238 -29.475,4.384 -54.647,-17.395 -57.927,-41.717 -2.857,-21.184 8.477,-39.356 25.773,-48.608 6.722,-3.596 10.587,-4.304 18.849,-5.756zm89.6 135.657c1.064,-9.212 -1.264,-18.594 10.981,-27.843 7.985,-6.031 18.136,-8.543 29.816,-9.669l1.152 -1.701c8.266,-11.201 13.845,-32.706 13.692,-49.98 -0.171,-19.318 -6.305,-36.226 -14.576,-49.091 -39.076,-60.781 -123.639,-64.13 -170.697,-14.128 -19.693,20.925 -33.821,60.404 -19.955,95.531 10.84,1.062 20.463,5.471 25.226,12.164 2.36,3.316 4.623,8.003 5.029,13.344 0.834,10.972 -1.215,12.447 -1.316,16.649 59.418,48.039 116.783,14.968 120.647,14.724zm-257.058 -135.594c24.34,-4.654 53.294,13.03 57.769,41.07 4.691,29.399 -18.833,50.978 -43.437,54.836 -29.153,4.572 -54.64,-16.129 -58.435,-40.874 -2.273,-14.823 3.056,-29.537 11.358,-38.143 10.575,-10.963 17.616,-13.997 32.746,-16.889zm-116.921 99.265c2.641,2.266 17.896,-0.556 33.831,9.713 10.326,6.655 13.7,15.201 13.785,29.613 5.779,1.545 10.958,3.846 17.31,5.39 19.474,4.734 42.63,3.112 60.529,-2.939 16.874,-5.704 30.792,-14.762 42.283,-26.465 2.572,-2.62 3.4,-2.705 3.573,-7.817 0.32,-9.456 4.696,-17.288 12.019,-22.228 5.451,-3.677 5.777,-0.447 9.04,-13.368 16.207,-64.179 -35.327,-121.31 -99.865,-122.578 -66.02,-1.297 -118.998,54.705 -105.783,118.144 3.239,15.549 7.031,20.17 13.278,32.535zm191.689 174.718c0.807,-5.646 4.506,-41.03 3.822,-44.235 -11.138,-0.49 -21.322,-0.851 -32.257,-2.081 -4.528,-0.51 -26.76,-4.459 -29.17,-3.672l-3.544 40.052c-0.699,7.673 -1.562,5.809 6.922,6.385 9.061,0.615 17.788,1.414 26.963,1.879 7.709,0.391 20.06,2.287 27.264,1.672z"/>
   <path class="fil2" d="M258.288 414.022c-1.002,0.873 -1.859,1.621 -2.902,2.276l-0.398 0.25 -0.425 -0.203c-1.878,-0.898 -3.647,-2.203 -5.418,-3.51 -1.339,-0.988 -2.681,-1.978 -4.052,-2.769 -12.301,-7.095 -30.328,-9.416 -46.782,-7.497 -15.704,1.832 -29.922,7.515 -36.252,16.578 1.626,1.779 6.146,4.245 11.576,6.785 10.56,4.94 24.445,10.055 27.662,11.172 15.022,5.22 31.97,7.795 49.076,8.163 18.446,0.396 37.076,-1.775 53.675,-5.966 6.516,-1.645 11.728,-3.26 16.762,-5.083 5.042,-1.826 9.927,-3.869 15.77,-6.365 1.031,-0.44 2.309,-1.1 3.646,-1.789 1.952,-1.007 4.027,-2.078 5.753,-2.686 -0.916,-5.727 -6.097,-10.985 -12.913,-15.105 -8.514,-5.145 -19.52,-8.474 -28.064,-8.763 -7.611,-0.258 -14.541,0.319 -21.103,1.871 -6.545,1.548 -12.728,4.068 -18.859,7.699 -3.379,2.001 -5.24,3.623 -6.754,4.943zm-97.612 -244.141c-6.121,-3.739 -10.523,-9.682 -11.943,-16.294 -2.537,-11.815 2.501,-20.724 10.394,-25.835 3.111,-2.015 6.665,-3.434 10.369,-4.202 3.7,-0.768 7.558,-0.887 11.278,-0.304 9.793,1.536 18.632,7.918 21.247,20.136l0.07 0.344 0.003 0.003c1.537,7.691 -0.7,14.472 -4.798,19.646 -4.078,5.149 -10.009,8.7 -15.887,9.958l-0.321 0.067c-7.607,1.521 -14.747,-0.058 -20.413,-3.519zm162.11 -42.009c2.471,-1.642 5.426,-2.894 9.213,-4.046 7.25,-2.205 14.235,-1.144 19.986,1.816 6.501,3.346 11.428,9.13 13.378,15.369 0.079,0.252 0.16,0.529 0.244,0.831 2.054,7.39 0.544,14.185 -2.961,19.595 -3.489,5.387 -8.963,9.393 -14.859,11.236 -0.238,0.074 -0.502,0.152 -0.792,0.233 -8.826,2.453 -17.011,0.68 -23.231,-3.518 -2.626,-1.772 -4.905,-3.983 -6.736,-6.495 -1.83,-2.512 -3.209,-5.321 -4.034,-8.292 -1.799,-6.472 -0.987,-13.707 3.463,-20.299 1.837,-2.723 3.83,-4.768 6.33,-6.43zm-122.284 47.614c8.862,-6.378 14.86,-15.975 16.625,-27.342 0.109,-0.7 0.198,-1.405 0.268,-2.112 1.112,-11.185 -2.854,-21.4 -9.563,-29.204 -6.721,-7.817 -16.185,-13.214 -26.055,-14.747 -0.683,-0.106 -1.375,-0.194 -2.075,-0.264 -6.493,-0.645 -12.698,-0.088 -18.302,1.415 -5.902,1.582 -11.132,4.211 -15.328,7.584 -0.556,0.446 -1.089,0.893 -1.6,1.34 -8.665,7.571 -13.529,17.104 -14.468,26.921 -0.939,9.812 2.041,19.924 9.062,28.659 0.413,0.514 0.833,1.016 1.259,1.503 3.131,3.583 7.588,7.142 12.732,9.847 4.513,2.373 9.546,4.084 14.657,4.565 12.816,1.207 24.163,-1.958 32.788,-8.166zm-51.961 -76.018c5.061,-2.534 10.667,-4.036 18.301,-5.495 0.389,-0.074 0.809,-0.148 1.256,-0.219 12.045,-1.922 25.063,1.411 35.713,8.625 10.652,7.216 18.949,18.317 21.552,31.93 0.086,0.449 0.17,0.929 0.251,1.44l0.021 0.135c2.339,14.914 -2.45,27.845 -10.944,37.545 -8.471,9.672 -20.635,16.124 -33.083,18.11l-0.321 0.05 -0.003 0.003c-14.748,2.262 -28.564,-1.837 -39.184,-9.631 -10.625,-7.797 -18.053,-19.301 -20.02,-31.844l-0.022 -0.142 -0.003 -0.003c-1.113,-7.258 -0.435,-14.491 1.508,-21.018 2.099,-7.048 5.679,-13.282 10.08,-17.844 5.355,-5.552 9.83,-9.103 14.899,-11.642zm148.396 45.408c0.056,0.881 0.144,1.763 0.265,2.643 1.538,11.169 7.461,20.848 16.168,27.411 8.492,6.401 19.637,9.841 31.956,8.817 0.421,-0.035 0.803,-0.072 1.148,-0.109 10.878,-1.196 20.86,-6.473 27.881,-14.372 7.009,-7.886 11.06,-18.391 10.09,-30.059 -0.033,-0.399 -0.069,-0.772 -0.107,-1.117l0 -0.003c-1.226,-11.145 -6.973,-20.682 -15.653,-27.198 -8.586,-6.445 -20.045,-9.942 -32.851,-9.13 -0.896,0.057 -1.786,0.147 -2.666,0.268 -9.933,1.368 -19.33,6.775 -26.078,14.501 -6.738,7.715 -10.825,17.737 -10.153,28.348zm27.288 -48.876c2.883,-0.82 5.934,-1.364 10.089,-2.094 0.44,-0.077 0.91,-0.151 1.405,-0.221 11.924,-1.677 24.891,1.732 35.475,8.998 10.593,7.272 18.813,18.409 21.232,32.181 0.089,0.507 0.174,1.043 0.253,1.61 1.987,14.125 -2.217,26.286 -9.8,35.619 -8.655,10.652 -21.72,17.609 -34.99,19.582l-0.719 0.1c-14.715,1.985 -28.333,-2.427 -38.723,-10.372 -10.396,-7.949 -17.566,-19.442 -19.376,-31.614l-0.079 -0.564c-1.408,-10.44 0.57,-20.163 4.982,-28.485 4.7,-8.864 12.162,-16.136 21.236,-20.989 3.426,-1.833 6.123,-2.929 9.014,-3.752zm-281 100.364c-1.196,0.173 -1.523,0.221 -3.078,-0.574l-0.218 -0.112 -0.126 -0.209c-7.434,-12.356 -12.403,-26.691 -14.097,-41.789 -1.588,-14.148 -0.3,-28.973 4.529,-43.473 2.275,-6.83 5.109,-12.998 8.281,-18.587 3.172,-5.591 6.682,-10.607 10.308,-15.131 3.114,-3.886 6.121,-7.165 9.33,-10.207 3.203,-3.037 6.612,-5.84 10.535,-8.779 0.987,-0.739 2.028,-1.451 3.069,-2.162 1.476,-1.009 2.953,-2.018 4.115,-2.988 -0.96,-2.346 -4.213,-7.392 -7.56,-12.583 -4.069,-6.31 -8.273,-12.831 -8.873,-15.398l-0.154 -0.658 0.605 -0.302c0.956,-0.477 1.862,-0.991 2.774,-1.51 2.165,-1.231 4.369,-2.484 6.937,-3.145l0.725 -0.186 0.279 0.695c0.528,1.317 3.618,6.508 7.013,12.019 3.899,6.33 8.175,13.042 9.432,14.788 2.499,-0.755 5.034,-1.832 7.829,-3.02 6.338,-2.694 13.989,-5.946 25.758,-7.432 0.806,-0.102 1.966,-0.218 3.293,-0.352 3.302,-0.332 7.654,-0.769 9.56,-1.259l0.1 -33.314 0.667 -0.148c1.638,-0.364 3.946,-0.571 6.165,-0.549 2.017,0.02 3.98,0.23 5.344,0.681l0.578 0.191 0.007 0.615c0.047,4.026 0.075,8.067 0.103,12.108 0.04,5.739 0.08,11.48 0.174,17.22 0.058,3.525 0.273,3.545 4.798,3.96 3.099,0.284 7.928,0.728 15.454,2.285 3.654,0.756 8.687,2.378 12.701,3.671 2.524,0.813 4.637,1.494 5.662,1.727 1.511,-2.017 4.138,-6.493 6.966,-11.313 4.393,-7.487 9.266,-15.79 11.508,-17.422l0.35 -0.254 0.406 0.127c2.203,0.691 4.703,2.28 6.916,3.687 0.723,0.459 1.417,0.901 1.951,1.221l0.561 0.337 -0.177 0.626c-0.703,2.493 -3.941,7.546 -6.418,11.413 -0.81,1.265 -1.542,2.407 -2.01,3.176 -0.477,0.784 -1.116,1.775 -1.86,2.927 -2.259,3.498 -5.461,8.459 -6.303,10.784l13.583 9.111c6.584,4.642 12.614,10.217 18.008,16.447 5.63,6.504 10.565,13.725 14.712,21.347 6.493,11.935 8.109,20.198 10.6,32.939l0.495 2.525c0.417,2.121 0.649,6.415 0.701,10.786 0.055,4.63 -0.091,9.362 -0.43,11.687l-3.611 19.469 12.331 -0.361c-0.265,-2.442 -0.964,-5.557 -1.686,-8.768 -0.738,-3.287 -1.499,-6.675 -1.857,-9.591 -1.179,-9.606 -0.619,-20.13 1.34,-30.294 2.002,-10.386 5.468,-20.406 10.034,-28.697 1.33,-2.415 2.666,-4.773 4.137,-7.143l0 -0.003c1.461,-2.354 3.043,-4.696 4.863,-7.073 3.359,-4.389 7.029,-8.506 10.948,-12.37 3.912,-3.858 8.073,-7.463 12.419,-10.835l13.923 -9.161c-0.932,-2.26 -4.254,-7.412 -7.688,-12.739 -4.091,-6.345 -8.34,-12.934 -9.097,-15.57l-0.134 -0.467 0.338 -0.356c1.016,-1.069 2.625,-2.182 4.446,-3.118 1.754,-0.902 3.721,-1.65 5.556,-2.045l0.636 -0.137 0.3 0.582c1.356,2.629 6.56,11.472 11.095,18.746 2.902,4.656 5.504,8.639 6.578,9.844 1.352,-0.338 2.989,-0.988 4.588,-1.623 1.148,-0.456 2.278,-0.905 3.237,-1.221 5.286,-1.674 14.557,-3.355 20.255,-4.491 0.545,-0.077 1.423,-0.144 2.461,-0.223 2.788,-0.213 6.813,-0.52 7.453,-1.077 0.922,-2.228 0.825,-17.029 0.765,-26.218 -0.019,-2.853 -0.034,-5.172 -0.012,-6.428l0.014 -0.827 12.539 -0.177 -0.212 33.838c4.907,0.866 8.44,1.252 11.566,1.593 6.853,0.749 11.776,1.286 25.044,6.149 1.112,0.407 2.393,1.023 3.724,1.664 2.318,1.115 4.801,2.308 6.713,2.519l16.602 -27.169 0.555 0.08c1.137,0.165 2.591,0.729 4.108,1.465 1.981,0.962 4.107,2.237 5.74,3.28l0.514 0.329 -0.143 0.591c-0.546,2.252 -4.473,8.354 -8.395,14.447 -3.551,5.518 -7.098,11.027 -7.978,13.364 0.894,0.844 2.159,1.725 3.787,2.86 4.764,3.32 12.556,8.75 23.943,22.173 10.723,12.64 18.018,28.989 21.191,46.205 3.132,16.991 2.251,34.839 -3.308,50.813 -2.046,5.88 -3.898,9.82 -6.033,14.361 -0.504,1.072 -1.023,2.175 -1.713,3.674l-0.157 0.34 -0.358 0.115c-1.463,0.469 -2.736,0.513 -4.45,0.572l-1.062 0.041c-0.272,0.012 -1.29,0.014 -2.112,-0.009 -0.596,-0.017 -1.128,-0.054 -1.329,-0.122 -0.12,-0.041 -0.281,0.055 -0.39,0.12 -0.242,0.145 -0.433,0.258 -0.761,0.237l-0.003 0c-0.814,-0.054 -1.031,-0.604 -0.897,-2.625l0.016 -0.251 0.151 -0.204c4.005,-5.428 7.377,-13.338 9.754,-22.014 2.459,-8.977 3.848,-18.757 3.772,-27.451 -0.08,-9.039 -1.48,-17.55 -3.798,-25.36 -2.587,-8.713 -6.321,-16.552 -10.644,-23.276 -4.896,-7.616 -10.512,-14.323 -16.679,-20.127 -18.085,-17.02 -40.933,-26.3 -64.364,-28.043l-0.003 0c-23.44,-1.745 -47.461,4.05 -67.881,17.177 -7.34,4.719 -14.215,10.385 -20.429,16.988 -10.526,11.184 -19.449,27.726 -23.278,46.06 -3.233,15.477 -2.83,32.224 3.309,48.091 5.4,0.584 10.49,1.987 14.831,4.08 4.403,2.123 8.047,4.962 10.483,8.384 1.323,1.859 2.618,4.138 3.589,6.716 0.816,2.165 1.406,4.542 1.597,7.059 0.563,7.403 -0.169,10.574 -0.756,13.119 -0.251,1.09 -0.475,2.059 -0.543,3.193 51.817,41.631 102.001,21.261 115.874,15.628 1.974,-0.802 3.247,-1.319 3.85,-1.357l0.481 -0.031 0.275 0.395c0.737,1.059 1.177,2.547 1.447,4.11 0.258,1.486 0.366,3.059 0.437,4.364l0.029 0.524 -0.457 0.262c-0.56,0.32 -1.256,0.684 -1.939,1.04l0 0.003 -0.843 0.441c-1.157,0.552 -1.876,0.826 -2.84,1.195l-0.989 0.38c-18.492,7.232 -39.305,9.837 -59.495,7.596 -19.481,-2.163 -38.391,-8.837 -54.088,-20.218 -0.439,-0.318 -1.008,-0.762 -1.609,-1.23 -1.205,-0.939 -2.557,-1.993 -3.679,-2.624 -0.583,0.769 -0.861,1.417 -1.24,2.302 -0.184,0.43 -0.391,0.914 -0.665,1.491 -2.447,5.17 -6.995,12.703 -12.139,19.036 -3.944,4.857 -8.255,9.027 -12.279,10.942l-1.9 0.904 0.73 -1.971c0.355,-0.96 1.532,-2.617 3.197,-4.961 4.606,-6.486 13.071,-18.404 17.199,-33.657 0.101,-0.372 0.197,-0.737 0.287,-1.093 2.306,-9.082 2.41,-17.078 -0.067,-23.317 -2.445,-6.16 -7.447,-10.639 -15.379,-12.786l-0.524 -0.137c-12.123,-3.078 -22.269,-2.815 -30.144,-0.048 -4.776,1.678 -8.717,4.281 -11.756,7.619 -3.037,3.336 -5.176,7.412 -6.351,12.037 -1.88,7.405 -1.295,16.221 2.03,25.683 0.373,1.062 0.933,2.416 1.524,3.845 1.118,2.703 2.345,5.668 2.707,7.622l0.463 2.5 -1.877 -1.714c-3.811,-3.481 -6.581,-10.332 -8.939,-16.167 -0.894,-2.211 -1.728,-4.274 -2.52,-5.91 -1.374,0.863 -4.017,3.154 -6.491,5.3 -1.517,1.316 -2.973,2.579 -4.062,3.443 -2.217,1.759 -4.352,3.265 -6.473,4.643 -2.099,1.363 -4.194,2.603 -6.346,3.839 -14.334,8.232 -29.559,13.113 -45.263,14.857 -16.13,1.79 -32.769,0.27 -49.468,-4.329 -1.461,-0.402 -2.665,-0.852 -3.828,-1.286 -1.46,-0.545 -2.854,-1.065 -4.593,-1.413l-0.767 -0.154 1.155 -10.56 0.961 0.257c2.656,0.71 5.164,1.57 7.713,2.444 3.054,1.046 6.168,2.114 9.577,2.943 9.432,2.293 19.743,3.081 29.896,2.589 10.63,-0.516 21.081,-2.438 30.162,-5.508 8.369,-2.829 16.006,-6.491 22.976,-10.896 6.967,-4.404 13.269,-9.552 18.969,-15.358 0.335,-0.342 0.639,-0.638 0.915,-0.908 1.689,-1.65 2.274,-2.222 2.413,-6.337 0.163,-4.83 1.356,-9.251 3.438,-13.101 2.118,-3.918 5.153,-7.244 8.955,-9.809 1.307,-0.881 2.319,-1.376 3.153,-1.784 2.43,-1.187 3.123,-1.525 5.536,-11.082 1.867,-7.394 2.828,-14.687 2.968,-21.802 0.453,-23.043 -7.69,-44.312 -21.546,-61.237 -13.865,-16.936 -33.451,-29.521 -55.872,-35.183 -7.897,-1.994 -16.141,-3.131 -24.602,-3.297 -8.575,-0.168 -16.931,0.638 -24.95,2.308 -23.106,4.813 -43.382,16.802 -57.992,33.304 -14.599,16.491 -23.541,37.492 -23.989,60.342 -0.135,6.905 0.505,13.985 2.001,21.163 2.541,12.199 5.429,17.614 9.598,25.43 1.117,2.095 2.325,4.36 3.606,6.895l0.127 0.251 -0.047 0.274c-0.08,0.47 -0.047,0.558 -0.038,0.582 0.171,0.453 0.252,0.669 -0.336,1.043l-0.02 0.013c-0.43,0.258 -0.529,0.165 -0.805,0.041 -0.048,-0.019 -0.249,-0.109 -1.315,0.096 -0.404,0.078 -1.486,0.112 -2.374,0.14 -0.384,0.012 -0.729,0.023 -0.982,0.038 -0.837,0.049 -1.404,0.132 -1.832,0.194zm165.32 169.662c12.182,1.09 24.933,2.232 32.474,1.947 0.571,-4.368 2.006,-17.769 2.942,-28.604 0.557,-6.451 0.94,-11.954 0.858,-13.99l-2.443 -0.106c-9.94,-0.43 -19.235,-0.832 -29.134,-1.946 -1.302,-0.147 -4.154,-0.592 -7.586,-1.128 -7.54,-1.177 -17.934,-2.799 -20.696,-2.656l-3.486 39.388 -0.003 0.003c-0.085,0.936 -0.161,1.629 -0.225,2.229 -0.199,1.832 -0.291,2.684 -0.102,2.858 0.202,0.186 0.988,0.199 2.456,0.221 1.038,0.016 2.367,0.036 4.001,0.147 5.783,0.28 13.251,0.948 20.944,1.637zm85.307 -42.394c-5.188,0.391 -10.343,0.78 -15.367,1.541 0.027,3.107 0.843,13.056 1.772,22.594 0.856,8.791 1.8,17.193 2.295,19.484 2.6,0.051 10.42,-0.535 19.642,-1.343 15.228,-1.335 34.207,-3.274 39.945,-3.951 0.162,-4.357 -0.335,-12.647 -1.095,-21.141 -0.833,-9.3 -1.983,-18.837 -2.933,-23.724l-28.186 4.911c-5.357,0.821 -10.734,1.227 -16.074,1.629zm179.991 -72.926l-7.377 35.99c-3.122,10.962 -6.302,20.676 -10.134,30.16 -3.831,9.482 -8.311,18.72 -14.029,28.73l-0.013 0.02c-4.871,8.039 -9.875,15.696 -15.312,23.009 -5.45,7.33 -11.342,14.323 -17.978,21.019 -16.346,16.496 -35.722,31.599 -58.821,43.223 -23.105,11.626 -49.927,19.771 -81.156,22.345 -28.82,2.376 -56.038,-2.507 -80.021,-11.477 -28.768,-10.76 -52.883,-27.406 -69.525,-44.459 -1.939,-1.986 -3.982,-4.083 -6.041,-6.232 -2.038,-2.126 -4.123,-4.337 -6.197,-6.606 -5.087,-5.564 -10.94,-13.318 -16.41,-21.415 -5.782,-8.558 -11.159,-17.534 -14.775,-24.741 -4.883,-9.734 -8.811,-18.607 -12.34,-27.613 -3.528,-9.001 -6.667,-18.16 -9.971,-28.463 -1.371,-4.153 -2.218,-7.59 -3.067,-11.035 -0.582,-2.364 -1.167,-4.732 -1.93,-7.361 -1.13,0.784 -1.821,2.138 -2.508,3.487 -0.853,1.673 -1.702,3.34 -3.397,4.302l-1.204 0.684 -0.07 -1.386c-0.024,-0.48 -0.036,-0.967 -0.037,-1.461 -0.007,-6.874 2.445,-12.332 6.555,-16.162 4.09,-3.81 9.811,-5.985 16.373,-6.315 0.558,-0.028 1.136,-0.042 1.733,-0.043l1.376 -0.001 -0.61 1.232c-0.865,1.746 -1.833,2.121 -3.263,2.674 -1.271,0.491 -2.985,1.154 -5.484,3.509 0.536,0.973 1.384,1.505 2.493,2.202 0.274,0.172 0.564,0.354 0.95,0.609l0.003 0c15.847,10.461 29.012,17.837 42.797,24.088 13.794,6.254 28.222,11.388 46.586,17.361 13.089,4.257 30.033,7.749 47.278,10.248 19.045,2.76 38.437,4.308 53.405,4.341 11.928,0.026 22.964,-0.268 33.718,-1.023 10.728,-0.753 21.158,-1.965 31.896,-3.776 10.647,-1.796 18.258,-3.26 25.614,-5.016 7.36,-1.757 14.516,-3.82 24.244,-6.812 13.042,-4.01 25.915,-9.298 38.311,-15.45 13.457,-6.679 26.353,-14.379 38.288,-22.571 1.511,-1.037 8.464,-6.118 13.529,-10.37 2.171,-1.822 3.972,-3.456 4.775,-4.462 -1.499,-0.441 -3.21,-0.66 -4.919,-0.879 -2.013,-0.258 -4.028,-0.516 -5.795,-1.124l-1.732 -0.595 1.568 -0.946c2.191,-1.322 4.591,-2.112 7.066,-2.452 4.652,-0.64 9.566,0.321 13.844,2.32 4.288,2.004 7.951,5.059 10.088,8.601 0.999,1.655 1.668,3.423 1.919,5.248l0.222 1.612 -1.452 -0.735c-1.068,-0.541 -2.268,-1.462 -3.573,-2.463 -1.72,-1.32 -3.635,-2.79 -5.491,-3.567z"/>
   <path class="fil3" d="M254.931 415.575c-3.231,-1.545 -6.213,-4.403 -9.413,-6.249 -24.635,-14.21 -71.778,-9.539 -84.517,9.862 3.632,5.366 34.962,16.965 40.016,18.722 31.392,10.908 71.11,10.333 103.24,2.22 13.081,-3.303 20.954,-6.492 32.658,-11.492 2.772,-1.184 7.154,-3.844 10.003,-4.668 -1.375,-13.738 -25.868,-24.77 -41.889,-25.314 -15.38,-0.522 -28.008,2.334 -40.424,9.687 -5.608,3.321 -7.117,5.624 -9.675,7.232z"/>
   <path class="fil4" d="M332.246 124.642c14.958,-4.548 28.751,5.265 32.3,16.623 4.667,14.935 -5.814,27.492 -17.78,30.818 -23.669,6.578 -42.536,-18.139 -29.602,-37.303 3.549,-5.259 7.67,-7.884 15.082,-10.138zm-35.891 22.99c3.1,22.509 23.629,39.079 49.04,36.967 23.055,-1.916 42.516,-21.822 39.791,-46.603 -2.488,-22.621 -23.193,-38.752 -49.407,-37.09 -22.202,1.408 -42.696,22.971 -39.424,46.726z"/>
   <path class="fil4" d="M149.568 153.41c-6.937,-32.311 44.719,-42.078 51.616,-9.851 3.24,15.139 -8.688,26.689 -20.263,29.002 -15.347,3.068 -28.712,-6.851 -31.353,-19.152zm68.401 -5.136c3.829,-24.645 -16.609,-45.161 -38.184,-47.306 -13.574,-1.349 -25.9,2.472 -34.249,9.183 -19.689,15.826 -22.037,41.129 -5.854,59.65 6.006,6.874 16.769,13.646 27.951,14.7 26.447,2.492 46.784,-13.362 50.336,-36.226z"/>
   <path class="fil5" d="M424.137 229.678c1.313,1.885 1.678,7.117 1.817,9.667 0.485,0.14 1.505,-0.414 1.816,-0.285 0.219,-10.925 0.017,-15.461 5.153,-22.586 3.996,-5.544 8.278,-8.762 16.036,-11.593 7.046,-2.571 15.44,-4.162 22.958,-4.447 39.307,-1.495 61.036,30.712 50.552,54.281 -2.617,5.884 -7.94,11.302 -12.496,14.426 1.518,0.196 4.166,-1.345 6.439,-2.567 1.715,-0.922 3.858,-2.782 5.421,-4.188 16.715,-15.037 8.217,-39.805 -5.64,-53.103 -2.906,-2.789 -7.121,-6.115 -11.163,-8.13 -5.783,-2.883 -7.51,-3.748 -13.727,-5.614 -15.771,-5.049 -39.712,-4.133 -56.261,7.024 -12.246,9.249 -9.84,17.903 -10.904,27.115zm67.808 2.695c3.961,-4.522 -6.69,-7.326 -9.16,-3.172 -2.537,4.268 5.748,7.066 9.16,3.172zm17.538 -4.181c3.603,-4.34 -5.944,-6.226 -7.852,-3.139 -2.69,4.351 6.004,5.366 7.852,3.139zm-38.285 -15.72c1.064,1.685 0.78,2.565 3.937,2.73 2.781,0.145 3.422,-0.592 4.579,-2.088 0.953,-3.268 -6.686,-5.923 -8.515,-0.642z"/>
   <path class="fil5" d="M30.913 198.921c-9.135,3.152 -16.966,9.388 -22.327,16.967 -8.292,11.723 -11.969,29.854 -4.667,40.935 1.304,-1.558 0.624,-2.223 0.296,-4.591 -1.573,-11.333 1.658,-22.82 8.841,-31.259 6.694,-7.865 17.156,-15.02 28.707,-16.874 14.272,-2.29 28.919,0.692 38.137,6.848 13.694,9.146 13.741,18.602 14.392,31.706l2.135 0.583 1.256 -10.851c-0.085,-14.412 -3.443,-21.941 -13.77,-28.595 -17.175,-10.926 -38.29,-11.217 -52.999,-4.868zm20.351 14.036c0.173,4.821 6.994,7.801 7.332,-0.001 -2.648,-1.461 -4.569,-1.49 -7.332,0.001zm-24.604 15.8c3.477,-8.629 -14.015,-1.813 -5.386,1.192 2.674,0.931 4.284,0.216 5.386,-1.192zm16.074 8.11c-0.81,6.916 8.411,5.888 9.201,0 -2.703,-2.972 -5.416,-3.464 -9.201,0z"/>
  </g>
 </g>
</svg>
